<mxfile host="65bd71144e">
    <diagram id="qo1IGXUCIrmXoJxwt_jw" name="Page-1">
        <mxGraphModel dx="1027" dy="386" grid="1" gridSize="10" guides="1" tooltips="1" connect="1" arrows="1" fold="1" page="1" pageScale="1" pageWidth="850" pageHeight="1100" math="0" shadow="0">
            <root>
                <mxCell id="0"/>
                <mxCell id="1" parent="0"/>
                <mxCell id="3" value="" style="rounded=0;whiteSpace=wrap;html=1;" parent="1" vertex="1">
                    <mxGeometry x="60" y="60" width="120" height="330" as="geometry"/>
                </mxCell>
                <mxCell id="4" value="&lt;font style=&quot;font-size: 15px;&quot;&gt;ECStack调用栈&lt;/font&gt;" style="text;strokeColor=none;fillColor=none;html=1;fontSize=24;fontStyle=1;verticalAlign=middle;align=center;" parent="1" vertex="1">
                    <mxGeometry x="60" y="20" width="100" height="40" as="geometry"/>
                </mxCell>
                <mxCell id="5" value="" style="rounded=0;whiteSpace=wrap;html=1;fontSize=15;" parent="1" vertex="1">
                    <mxGeometry x="380" y="90" width="390" height="300" as="geometry"/>
                </mxCell>
                <mxCell id="6" value="&lt;font style=&quot;font-size: 15px;&quot;&gt;堆内存&lt;/font&gt;" style="text;strokeColor=none;fillColor=none;html=1;fontSize=24;fontStyle=1;verticalAlign=middle;align=center;" parent="1" vertex="1">
                    <mxGeometry x="390" y="50" width="100" height="40" as="geometry"/>
                </mxCell>
                <mxCell id="8" value="GO对象" style="text;html=1;strokeColor=none;fillColor=none;align=center;verticalAlign=middle;whiteSpace=wrap;rounded=0;fontSize=15;" parent="1" vertex="1">
                    <mxGeometry x="390" y="100" width="60" height="30" as="geometry"/>
                </mxCell>
                <mxCell id="9" value="String&lt;br&gt;setTimeout&lt;br&gt;window&lt;br&gt;foo: 0xa00&lt;br&gt;fn: undefined" style="rounded=0;whiteSpace=wrap;html=1;fontSize=15;" parent="1" vertex="1">
                    <mxGeometry x="390" y="130" width="120" height="100" as="geometry"/>
                </mxCell>
                <mxCell id="10" value="&lt;font style=&quot;font-size: 11px;&quot;&gt;bar对象对象0xb00&lt;/font&gt;" style="text;html=1;strokeColor=none;fillColor=none;align=center;verticalAlign=middle;whiteSpace=wrap;rounded=0;fontSize=15;" parent="1" vertex="1">
                    <mxGeometry x="515" y="250" width="100" height="30" as="geometry"/>
                </mxCell>
                <mxCell id="11" value="" style="rounded=0;whiteSpace=wrap;html=1;fontSize=11;" parent="1" vertex="1">
                    <mxGeometry x="530" y="280" width="70" height="30" as="geometry"/>
                </mxCell>
                <mxCell id="12" value="" style="rounded=0;whiteSpace=wrap;html=1;fontSize=11;" parent="1" vertex="1">
                    <mxGeometry x="70" y="300" width="100" height="80" as="geometry"/>
                </mxCell>
                <mxCell id="13" value="VO: GO" style="rounded=0;whiteSpace=wrap;html=1;fontSize=11;" parent="1" vertex="1">
                    <mxGeometry x="80" y="310" width="80" height="30" as="geometry"/>
                </mxCell>
                <mxCell id="14" value="开始执行代码&lt;br&gt;var fn = 0xb00" style="rounded=0;whiteSpace=wrap;html=1;fontSize=11;" parent="1" vertex="1">
                    <mxGeometry x="80" y="350" width="80" height="30" as="geometry"/>
                </mxCell>
                <mxCell id="15" value="GEC(全局执行上下文" style="text;html=1;strokeColor=none;fillColor=none;align=center;verticalAlign=middle;whiteSpace=wrap;rounded=0;fontSize=11;" parent="1" vertex="1">
                    <mxGeometry x="70" y="270" width="110" height="30" as="geometry"/>
                </mxCell>
                <mxCell id="16" value="" style="rounded=0;whiteSpace=wrap;html=1;fontSize=11;" parent="1" vertex="1">
                    <mxGeometry x="70" y="185" width="100" height="80" as="geometry"/>
                </mxCell>
                <mxCell id="17" value="VO: GO" style="rounded=0;whiteSpace=wrap;html=1;fontSize=11;" parent="1" vertex="1">
                    <mxGeometry x="80" y="195" width="80" height="30" as="geometry"/>
                </mxCell>
                <mxCell id="18" value="开始执行代码" style="rounded=0;whiteSpace=wrap;html=1;fontSize=11;" parent="1" vertex="1">
                    <mxGeometry x="80" y="235" width="80" height="20" as="geometry"/>
                </mxCell>
                <mxCell id="19" value="FEC(函数执行上下文" style="text;html=1;strokeColor=none;fillColor=none;align=center;verticalAlign=middle;whiteSpace=wrap;rounded=0;fontSize=11;" parent="1" vertex="1">
                    <mxGeometry x="70" y="155" width="110" height="30" as="geometry"/>
                </mxCell>
                <mxCell id="20" value="AO对象(foo)" style="text;html=1;strokeColor=none;fillColor=none;align=center;verticalAlign=middle;whiteSpace=wrap;rounded=0;fontSize=15;" parent="1" vertex="1">
                    <mxGeometry x="515" y="100" width="85" height="30" as="geometry"/>
                </mxCell>
                <mxCell id="21" value="name:undefined&lt;br&gt;bar: 0xb00" style="rounded=0;whiteSpace=wrap;html=1;fontSize=15;" parent="1" vertex="1">
                    <mxGeometry x="515" y="130" width="95" height="100" as="geometry"/>
                </mxCell>
                <mxCell id="22" value="&lt;font style=&quot;font-size: 11px;&quot;&gt;foo对象对象0xa00&lt;/font&gt;" style="text;html=1;strokeColor=none;fillColor=none;align=center;verticalAlign=middle;whiteSpace=wrap;rounded=0;fontSize=15;" parent="1" vertex="1">
                    <mxGeometry x="410" y="250" width="100" height="30" as="geometry"/>
                </mxCell>
                <mxCell id="23" value="" style="rounded=0;whiteSpace=wrap;html=1;fontSize=11;" parent="1" vertex="1">
                    <mxGeometry x="420" y="280" width="70" height="30" as="geometry"/>
                </mxCell>
                <mxCell id="24" value="AO对象" style="text;html=1;strokeColor=none;fillColor=none;align=center;verticalAlign=middle;whiteSpace=wrap;rounded=0;fontSize=15;" parent="1" vertex="1">
                    <mxGeometry x="640" y="100" width="60" height="30" as="geometry"/>
                </mxCell>
                <mxCell id="25" value="" style="rounded=0;whiteSpace=wrap;html=1;fontSize=15;" parent="1" vertex="1">
                    <mxGeometry x="640" y="130" width="95" height="100" as="geometry"/>
                </mxCell>
                <mxCell id="26" value="" style="shape=image;verticalLabelPosition=bottom;labelBackgroundColor=default;verticalAlign=top;aspect=fixed;imageAspect=0;image=data:image/png,iVBORw0KGgoAAAANSUhEUgAAASkAAADGCAYAAACO/HZhAAAAAXNSR0IArs4c6QAAAARnQU1BAACxjwv8YQUAAAAJcEhZcwAADsMAAA7DAcdvqGQAACbLSURBVHhe7Z0LUFRXuu//ccao/VABQQw0CJKAkYB9Y3xgxjfBnNLJzCGUcxwnCaRGx5NYJ+OUj7FCjifkZDTWmNzKzDEyFcjkOjnjJZx5aF1lUKNe42v0NhgdRBEiSFCbh9rdGDXHuWvtvbp7NzTYu7vp3sD3q1qV9dq7G7vz7+/71trfeigtfcrfQRAEoVGGiP8SBEFoEhIpgiA0Tf9392I3oWRKkmg48MXBArxrF80wMv3REixP1aPx1BJsvCo6Q8ZqpBY9i0jR6qwqRnV5mWgFg3so/bAa0YenYNFvRRfs2F1mQ1XeOLwuevzhrS2nkDueVb5Mw8Q1BrmTGNT4bUlFpT+HmXOzYdKJjrCwDBuZQHEhKNjNS6gE6mn8dM5ObIwVTY0RuYIJ1JU9OFaYLZXgChQXkmpMb09TCBTHgPJTncj9sB35okc1L7YwgYpDed4UEijChR8ilYi0uc8h2taATtETNgzxiEYDakJuqTyY4xcLJOEMvRWVB91ooL1mq2gHGaeQeBGR0s0TUN5ej5Xr7okedeTHsm/Ul8aALDFi4KHa3YtKz4auvhJNyIB52li0nmB1lWr10EMP4e9/7/1lfZkju3pAxe712Cm6ZJiFtWgebipcvyVP7sSsW+/jlYtH5OvizqL41jzJJePcrhVjTjzcSPc4v0/OONGpwH09f+3FSJB6vbufnvdQzuEWWgFw6gBGzXHeo8HL39cbsquHymzUHhZdLjzdQNgtqN681v1jM+EdZL5khss45tbYdqXYeXPzujCrHSdX3cFf/HD78tddwtoxY8mKIjxQbUm1nVUvSkq4+AwdOhQPs9ITfIzP4XO9weM9JYt2ChFJQg6v8/LkMnmCL4xbjOUjD8hu4qkGjEhdhCViSBaoGCYeTjdyiUvAdp7m7ffxBRMVt5vpHgd2YKPUtwuNokcJf+85RguKxXXFtcATcza5Xxt61uYC63ydJMx69Gkx1gtcYIoqMUOIUGQ2r/PyoRClPMSvexbDq4qFG1jMfmjMyFyxWhqVBIwJ1NdM3OTxPWiPfxaZuXlinDHLhkkj41DVk0BxDhtx7lYzJr8o2gQRICFf3ePW0TfffIOHhgzxKlRSHxMnPqcnS8rpSnFxkS0N+X/4gtM75Am+wKyIYuf8q2eZoMTgEekHnFkzaUnMMirpg/jWMizkwfTzm3Bc9By/WCIJ0URFfKvxlNOyOoJjzQ6MGMkjyQ/g0lpUO8WFNdtdYvOy1MashTAZGtHkik+V4cqnFnTGT5JETJf7HUSyf5Mml/W1FbWVjdClPOW2rJLuwHhrGC6JpneGopm9YEysepdvwpgO2FqHiRZByIRlC8L9+/dx7969bkKlFCg+JzyMxygmVlabwvULKg7cDLr4+Yi9DV+LqlduXO01zijFjHzgUmsEjGPuiNaD4W5eTdkpTD47BVM392xhE4OTsIgUxylUXJS4OGlDoDhf9rGI6CURdCOLYkgwRGG4qErERbmtJM7oWI+2LtoVvZIoverbUq5ai4gH3CfmTUFV+imc9DPoTgxcwiZSHC5GTtcv+ALlFgMpDuQl2O0d2cVKmKKME3XlCL6yAQlxKmJgEjtQ08KuS1uP6aJn+qPzkMDcrL19vQp4+Bxz+xJgcsWY8hA/IwGdVXsld7Cz6iI6DWaYZsmjPEZlmmxA+zFFYL1hGGwj72CCaHrnHuKYtl2/qt4iUmuBEYMD1SKlS8zGzLnPYea0JParq0PCtMD2S3FRunPnDu7evRtEgdqBjacamNDIAXUeIK9g4uArPOZVXBvjDsiz8usuweudp3ehcdzi7uM86C718dU5HgTn9RL8VAgmD7xX2MxYLq5bnnodFQfdMaq+YytqC/fg68nLRUB9OUw39rj3UPGY1kcWDHcF3OUgu8cKoQiKP9ObteNLcJ0gVEAPGBPqeLEFNYuA8h62GPAd48+0ZvoVW6ItCIQ3wuruEf2Q345D+ZfNyN3SPXDHRSY3Mhnb/Ax+SzGvyLv+71gnBiQkUoRqXl+TieOR57HbYy+UHblTdCh/ORKlokc1XADb67G27BRqvIggMTghd48gCE1DlhRBEJqmX4pU1JgxokYQxECHLCmCIDQNiRRBEJqGRIogCE3zrTExj2wU9X6DTqfD7c4A8sUQGkOPuVvm4HtP2XH8/+qRuy0L0xOuoepU153tMdJYzqIJmM7KRK9z1CLfU3q9b8Uj//WnMGFEPWr+JoaJsOOHJTUKJulRGFHSE0U/QfQtkzZkwtRUjfdWVkqldJtDjBADGdUipUucijFXD+Lzz/7EShXaoifDnDhKjBKEPzhwvQO42cFFx4F2O3DL2lWA9IiJAJouXBftYKF4vRMO3OLtJjFEaIKAN3PyAxnSUIXPz14WPX0P34LQ1toqWqFFOgUm7gKKFQ8Fd+vrknrY48QYPpZ2A8WngB/NMWME72vZ5VvCvtmvoujxGpS2zkS+2Sh12S3bsbmsTqpzkvPecI0BNpwpeRPSsHRtO86MNiPDyPor6pCcY4bBZkHpLz5BvTR/Ppa/vRAmqd793uGFu2WZwP5KlH8qulzIY873DXsdfremAVbRjF6ZhR9myGmiOU1e70FoFQqcq+R4ywXcNjyGGYpnYBNH6nG7+YgQrWXYGHdWzhQqsod2S/tiMGP5nNE4zMcPWnB73DxXloQHYlqI/DGfo3DDGhRWXGa3WojZYggpS7EAn8hjrJRagIy8pUgWwzCZEXF0DfY1GZGRE4njG/aiyZiCJ1P4YAryfr4QEUyY5Ov3osO8AstdNw8T05KQvy0brwkRMs3ndbk9SZrA41mZGHnmqHADj6Ka/S0/3BAjjeL5TCZQDlQKF/G9/dfZPbIwd5o8TGifwEQqOgtp0Z1orA+dFRV27JtwuEWPlHHO1C3LMHFcAw4rc5wrrSKP1MRO+OEL4nAF+xHU2bsmwusFbvls2y/XD9WgCZGIkUSGUfcJihWWT72lDnZjpNvCYNfuOyRX7Za9EFWZlKlMzCwoc12/H/ssNpgeny/avbEYce9sRUbXUvhjPCxm+M2JBpRKAlPN/lbZCpLFqBrn+PjzKcg0XMdJV3zKgc8+rcNN0zgmYkzApsXg5pk6eS7n02pUNukx/n+4LStC2/gvUroMmNOjAz6YoT+ys7kBI+KelhPXxaYjoeWsx2ku/DQYZ54pOa9UF+wXcMz1/OwRvHswWEdfcWtoC4reFqWAuXNi5IHERcJgNCPfeS0rbrfxQexC89rVONO1FP0Gd8WMPsV+C71FqrrHt4j+hH8ixQWKmeGoP4jzTsd/MMGtI+HyLYlLQmOz23KSs4AqDofo4dSYvmD2yhXIYNZQqXD3CkssUJVLgFtpzmudxWm19UofWlK+YBjJbFUFppFQLuWMjFZaTXIAnug/qBcphUBZLt8UnYMNngaYu2jM1TN6Sf1rvwGnA7zkSS+WVF9y45oIgjOrKk+FJcVdR2ZJ5eU5fUc1hNGS+rSFuYExmLrSKURKF8+Bs/UOjMpIEfErRjf3kNA6qkUqKpmnDWZalTzHvVcq7Meth56dtRZET1mMaFfAXOb4xQPMynKnB551yxIyS+pQJbOcTAuFu7YCEXVqLKn9KBbBcpe7yErYA+cP5DrKV1bjVkaWCKhnIbOj2rWHyrrtKH53Ro9saYyV+XpUfyTiWUS/oF/mkwrnFgSCIEJLYKt7BEEQfQyJFEEQmoZEiiAITUMiRRCEpiGRIghC05BIEQShaUikCILQNCRSBEFoGhKpAODP6bkfJO6SjiWMyA84l/ie/iVg8hC/rhKps0SzT/kB3lvwAf7VI4kB7ytCgWj5Rxb+dcbH+POCj/GfSVmij9AC6kUqOkvxOMwgTh9sWI8fpQJfHHQ+SCxSr/Q17HV/rSFBDC1cSP4BYy99jH/zePTu9/jDpWh8b8bP3Lm1VDI76QU8iWr8ct8L+KeGo6KX0ALqRcp6VKQO5uUgGvWDNH2wYTRGeKRc0Q47T3PRLMC7GnxvgeAUkg+8iMihhp/gj45M/MRPK2iCUQfH1WOeObYITRCU9MEJNnUZER566CH8/e+9v2xvc7Tw7J63NMISzvTArv5l2LhoHm4elEWDX/cjlODwyFXIGSdN8EwvzOmSfvh27ft45eJ4dh9vGRV4Aj0hSNzKcqYkBk8X09W64+9FcQ+7pcv7TEfNwRuY5byHx3hvcHdvOfTH9gDZzyJS6mtEbeHLaJfqnNVILXKOMa7swbHtW+X6hHeQ+VIUmgrPIdo5h7129ea1cKcq4y7dHHQc+0kXK0qB/mf4zxmjUbmvkP0Lq6Mg42Nk2z4gK0qDBBiTSkR0dCdareoEaujQoXiYlZ7gY3wOn6s1nAntlqfqmSi4sx38+lFnps4HMyJ1FWbdel9yE4trHUhIWy8n0ONIAhWjcCOXMIHiWT93YCNv83TDkgA5xxUWk30TXnHN6crT+OmcxYhmgidf9z6+AHv/Ty4T45wk5DjTGvM8WOzvWxgrhnwgMvs7cHyUjWOF2ai9koDUFavFCBtbMQlW1s/HjhXuQXv8s11iWGx+kfN6Ns5e26Qcj5mEZMdFHOwtw4rjGM47EpHhkVyK6O/4JVK6xGwRk5qMKOsFVZk5uXX0zTff4KEhQ7wKldTHxInPeZC1FQ5kV0oWF8nSkP6HdgqJj7Tscs2Xc6aPZnLPYUKSlsQsp5Lgu2qxi/CEQZnm+AjePcXzq6cr4luKtMZSziwg2ui7+LZXfh9XLol6TSMQP8llObVvV1pVW2G9AgyPzhNtGff13cdn66PZ22t+gDt2FE3sYxmrV+vyZcHEfnOuOciK0iJ+iVTn5UpXXMpiewwzp2VIOaZ85f79+7h37143oVIKFJ8z+Bgv5Tq32lQInhoUyfj6nOY2havGmPUhZhRVukpqvOh30QjrYVFltG/PRnV5mWjJMSNfuGTrhN7oe5pB7ub9ecELwJkX8FqwT8sigkKA7h4TLOs1dOoMIg7iO06h4qLExYkEivMlbvZlsNtlsQl48F9Ug05cFHT2NnzN6zzmlJ3ALCWnu8fdQWmWz3Dx8QUpAG7zPc1gCROn7+77GGBi9R65iZokYJGSMnVam9Em2mrgYuR0/QaUQCndtzlq0gcfwbFmR/cjsJTYr8CKJExUESuSkE6tScIsV+zM6Vru7oOtE3mIn5GAzrq/KqwpO/fWZJhV1d2S6p1DDiugj3vAFgN/3TZ/3UQiFKgWKXc8Si6BHgzKRenOnTu4e/fuwBCoq+tR0ZKEHCmgvgqjzqs7iOH4xQIU18aI670F5Xdgo3SWn3PcvWnTtblUWp1zvgen4PHA+y5YU1eJ61bhCZs7NhYMIrOd7txyRNUVu921S2vRdMUA00tifEYba8tDPnP9HOr1mfh+b9aOfgbS9Jdxhty2AQWlDyb6DbOTPsDPYi/il8d+6TWAHsg2AtqCoF0CdvcIIlQcavgYp+F9wyYXsO/pvW/09AW1AXcidJBIEf2Io/i3Y/8H1ya80O3Zve9PsOKPPVhYviAJoP4f6Nk9DULuHkEQmoYsKYIgNA2JlEq4FUcQROggkSIIQtOQSBEEoWlIpAiC0DQkUkRQSM57A0Vvb5HLyvmiN0jwZ/9cDyd/6M5JFXRex9c/O4C7Y0WT83wmXtuWhbnTgOiVWayeiUliCIhBrhjrC5SvN2lDNl7bkoRoeah/M/Y/4Pjxf8DX50sCEKlRME3jj8Zkw6QmBQIxIKkvexOFG9ag1GITPUHk0lpU8weTP7J4ZlYIKstw98fP4b8tJXj4mugi+oZr/4xhHU/h5vOvi47e8VukdIlTkeCw+vVgMUFojfvzCuDAXzHiwA7RI2i6hZts5PoJwGrlOcRuIVSPBipf73oHq7NilYf6Pd/+9H9CH/Ecvs4QHb3g32ZOXQbM08ai9cQF6Kc9BseJSlWJ7wIlnJs5w7+RNAV5P1+BDKNo4jL2bfiVa6f17JVbsMAkGrDhTMmbKKvjdX7dUqDsc0QULIQ8xfNaYD6Wv+0cY9gsKP3FJ6gXzZ7v7Ya7ffljPkfhtv2ix4nnve2W7djc9eIH4UozrEygx5D6ze6cZsrUxAxd7h+QObnL0Tkec7ibNw9DdsxTaUVxdy8F7ftbMH5+CvMtGPY6/G5Ng0tMuMv2wwzn9ngHqj86is+Y4HG4Cze14yh2I9M1p2l/Jco/lap9CP8sJqK2pB3TC8yQ/mW6fNaY/SqKctyJfZoq1qBY+qLI13ZYIpFhNrLPcS/qUxay72PX75riO9q018v3gZHxv9ExrRWjfvPPvVpLflhSzM17IonZ9ydDKkwER3z4N9iHzlwrubhFhgvEgtHsyybGSi3se1DwqiK9iZG1Z6KjhI9vxxlbIqbnpYgxLkILEcHEw3VvxZf2wffuDf6+lffeiw7zCiz392gXD1YjlQnU165cVXJq4sxckdWTCdijk9n/J660xqyP509XiBgyMnD71nl82y83T4/M+SNxcmUl3lt5FNXsb120UojStCTMYj3vSWOV+N0ZIPN5z7jSqAwmYhF1YtwBE7smNHGnRCwoiMRx8Xk0Gc1Y4Po8mBA9XiM+K1YqLsOUo/ysE5HBf4hYv8HMPteja7CvyYhks/xdmr1S+R1l37PRC7FO8T1zceYMRoxMwzfKGKAX1ItU9CQkoAG1Kg5eIILEbP6Lxawfb79K7Iu1gP2yNR11C0t92SeSEKUqxKCpwvlrV4fTdTYYxngeSWZImYpkUXfj2717RLqnBWUuy2k/9llsMD0eeIBdl/sdRDLRaXJl9dyK2spG6FKekiwr3eRHobNfRLsyrbEhCsPlpsR9vkG34ys/Yx/cOqrGOVE/W+/AqOQYWWhONKB8G3PTBNb/14KbhpHM/lLALa+3ZQfS63ifwS0f5w/cftQ2ARExTiHZj2Lld+xQDZoQCdcwv7ZSjDMLbJ/bFGfMR6pJ+R2tQ9lRJmZev1dfYsgtI+4HV6QSkZauR+MXZ/owgEn0RHJMJPtStLMvTE/Y0OFMLOcHh7axXz2YkS9W6TwtnQDuHRcJA/uldt6Xl3wmekHjxtUev4+dVuYYGh5F5AS5HTkxgbl65zzcxfuRwXsvUhzJhR5zt2TjtW2ivCRcQgU366+740xM1EpXOgUvvHDX3rVaqwwBPIiUsYjgVpris1a6jZ7swJAO4L/HKA8D6Y46kYqOQxT7fUqQVvXEQQzO9mA9JDSE1F/3iMR4wYiIOFGVSESEqv//2K/eL4SJX2JBRI5SqAK8N495ON0HZ/FqEfrB6FiPHPu6aMUmBSnXujvhXmp8I2qVrh5jSHvwViSjo5mrJwLckzZkIZP9m/5OuHvvfVSH/uB/SK49t4ZcnxVzB8WYbyivFUUZ73KxDPcjgG+1dlms6II6kfI4GJSXKvCvQOMJVg8gOyfhI9zsZhZJnjf/XpjspqylLrM6OW8mTN3McR+puwb2IycI8N69vm83zl9vNbGqzqqL6PQ4/mo1TJMNaD8mn9kXucAMVBW7cqsf6xp0ZwzhCyERj/i8b6dnYjArQ4+mC4r1P9eKHLOqnu9uSQWKP/9mPqGw2Hms0mdLqu4k6m3MkvJpr9x43B9pw5AHxAIDTNXC3L+5tLoXWrqswPW6uqcck4PuPMgpr9LIv5julbiu9+2+Avege7tXHAUeqzrd7+9eMZJx3r9rv9fVOeXho11W9zqZKLlSF3dd+ZPoenApX917Dqh8CsPPiC6f4Kt7mZ5/k3J1bloS8hUuXtOZOozM4EF22aVzru6VKuJWqhGrcOpWS/lnwRdQ3Kuz/N9+eqvzHp6fld1iQYc5RcxXXBvHXjurXVoVNHlc3/374PX9+bi6R/mkVBJ+kSLUELmiEqZWhWgxeF8qPLcp3J93ADcnnH/g/zCaI2Up1hWY0dFF2LUP3zz7L7h/4sE/DP3q8yAIdeRBN1pUXaxGdDyztlo9oyxDDpQwh+wp3J7XexBXO3Brhbl6/VKggG+e/xc4Ov7kk+VKlpRKyJLqZ3hx9zzcQQ/83dRJqII/u/ddYISPViuJlEpIpAgitJC7RxCEpiGRUglZUQQRWkikCILQNCRSBEFoGhIpgiA0DYmUHxRkfCyddPvnjB+IHoIg+gr1WxCkhHdJno8ZWKtC+uyeNrYBZOFfZ/wEEZdewGuhStVIEIMQ/yypzgZYlA8aD8qHi4/i4NVOjNVniTZBEH0BuXsEQWgaEimCIDSNfyKlS4JZSnrHSxaiRPdg45DDCn3sDB/zfBME4Q8BP7unS8yGOdmB858dDdnxVpp6fi6mCH/OSITj0gf4p4ajopMgiGARsLvXab02aPOdz076AH+OPYfv7nuBBIog+ogARUo+3kpnbR60h4Q6bI2iRhBEX6BapLh7J8eieJmDMVcPUn5zgiD6DNUi1Xm5UnEQw59gofP3CILoQwKOSQ1esjAnVodrDopFEURfQiLlB/Kzez/Bk6jGH+iRGILoUyh9MEEQmoYsKYIgNA2JFEEQmoZEiiAITUMiRRCEpiGRIghC05BIEYL5WP72G8hLEU2C0Ah+i1RUuvPRGFbSE0Uv4ROxm1AyZz2miyZBED3jh0iNgmnac0hD1SBPH0wQRChQv5kzOgszxzaHVZjCu5nzafx0ziqMOr8ENXE7kTOO9znwxcECvGuXJsiW0pQk0VCMGdbj13PMGCEPKGhAxe712Km498ar8sj0R0uwfOQBFJzeIa4fjcO7z2LiosVI4BPsFhQf3ITjYu6PUILDI1eJ9wU0nnLfq3e4uzcTHRV1SM4xw8C7bBaU/uIT1EvjjNmvoijHbTU3VaxB8SG5PnvlFkxv3Y4yLEW+2Sj1KccJwl9UW1JRY6PRaRuFNFcmBGZVRYvBQUTClJ2Ydet9FOxegooWPZ5IXSYPcCGZEsOEaYk0VnDqOp6YswlL+Jh9E16R+hpkceF1qXCB8pUk5Cyah5vS/Xeh0WDGwlgxxBiRusr1voprHUhIU+NWGpGRE4njG9agcMN2nIEZea4gFROxx2tYPx9jpeIyTDmvemQlNZhXIH/M59J4qcUGU9ZSJIsxgvAXlSI1Cjo9oEs2wOpy9ayISs+GyeOMq0FAyy68cvGIVN3ZzETHGC+JwfRxjwG1JW6r6upufGFPwkSFkARK4ymn1bYDNS3MuDU+LfVLKN7X8ZYLuG0YDd8jhjacKfkVZOOnDqfrbDCkTBVCsx/F2/ZLNYlDNWhCJGKUgXZueYk59ZY62I2RMEktgvAfvwLnbWcVqYKt59DYqYOeiddgorGZuV9Orq5HgXC5EkfqJWumZNFOUVbhCcl3ChYNqFG4bztPL3GJUrCpv94uajLcpSt621kWdhMge91Jt2tY9wk2b3AKHkH4j0qRuolOB3MpdKNEm/DG7VrZ3VIW3+JC2iI5JhK4cU0SnuS8N7DAdBn7nO7ehr3MkiKIvke1JdV2zcrcvUnuE2KiJyFBZ4XVKtqDHO76jUgtwE97s57sN5gb9hhm9DDH5b7FbsLy1HCZqPOxwGxE098ULp6t3SVMs1d2t6QIoi9Q7+5Zj8JSr3cHztMR0pNiNA93/aRgudPd40UEzp3YN+F/1UIxxzl+BO+esgBOdzHtBipqmekaMozIKHC7c1CsztWXfY4moxn5wt2b3mohS4oICZRPiiAITeNX4JwgCCJUkEgRBKFpSKQIgtA0JFIEQWiafilSFDQniMEDWVIEQWgaEimCIDQNiRRBEJqm34pU/rpLqCk7hZoP25Ev+giCGHio3HHOs3LOQUK3tCydaDxRiaZO0Qwhb205hWdaMzF181DRQxDEQCLwx2J4ps5wPr/3Ygtq0o2YuCao+VAIgtAIAbt7UqbO+nP0gDFBEH1CYCKly0BCtBWNl2+KDoIgiOASkEhFJScB4baiGobBNt6Gt0STIIiBhf8iJVlRnWi1htmKOhyJqe8PwzN8pW+LM7E4QRADBb9FiltROuuFsKzoecAD5y8C2/KmUPCcIAYg/omUsKIa6zVyKGj7wygVVYIgBhZ+iNQomJ7QiBVFEMSAxw+RuommE3S0OkEQocH/wLlGeCu9GbbWYaJFEMRAo9+KlPPZvdzxcfgLPRJDEAOWfnlaDEEQg4d+7+4RBDGwIZEiCELTkEgRBKFpSKQIgtA0JFIEQWgaEimCIDSNX1sQotKfQ1q0aDDazv4J562iQRAEEURUi5QuMRtm4wX3YzHhTh9MEMSARrW7N8KoQ6fthmgxHHbQc8YEQfQVqkWq7ZoVuuQ5wt1zZkRoJiuKIIg+wc/HYhKRNncyolits/4gLJTjnCCIPkL96h6PQc19DA6eruWzKtxmVtXMaRnodhQfQRBEEFApUsy9S+ZHWJ0UCe8u4zwTqjZdEhIUq30EQRDBwq99UjrjaFFjRMcxt68TDodoEwRBBBE/YlLueJRM+I5YJwhi4EP5pAiC0DR+uXsEQRChgkSKIAhNQyJFEISmIZEiCELTkEgRBKFpSKQIgtA0JFIEQWgaEimCIDQNbeYMgOS8N5BvNorWZezb8CscEq3wshqpRc8iUrQ6q4pRXV4mWsHgHko/rEb04SlY9FvRBTt2l9lQlTcOr4segggGfomUR/rgzgZYTpwZfInvUpZiXUEK6kveRFmd6NMIkSsqkYo9OLZ9q+gJLm9tOYVcpGHiGoPokeFH3699LALvvByJUtFHEIGi2t3j6YPT9EyYPuOpWv6E844kmNMTxeggIi4SBlsdTmtMoIA86EYD7TV9I1B4sQW54+NQ3kWgOKWbJ6C8vR4r190TPQQROCotKfnhYigPXtBlwDzNgMZQ5jiP3YSSKUDF7vXYKbq69y3DxkWLkSDVGS27UHB6h1w3rMev54zG4d1nMdE5x25B8cFNOC5NeDCSq5dSh9JffIJ60Scx+1UUPV6D0taZLlfQbtmOzSEzt2RXD5XZqD0sulx4uoH8b67evNZtBU94B5kvmd25wa50tca8uXldmNWOk6vu4C/k9hFBwo/AeZe0LJ03cRt66EKZ9e7qWTQiCRNjRZsx3RjDhOisS7SWPJmOmt1LUCCVXWgctxgbFfPBrs9ZNA83D4pxgxkLPca9M3vlFhS9vUUWIKMZ+azO2+vyUsQMhmkh8sd8jsINa1BYcRkG80LMFkN9BheYokrMECIUmc3rvHwoRCkP8euexfCqYhwrzGalGE0wI3PFamlUEjAmUF8zcZPH96A9/llk5uaJccYsGyaNjENVTwLFOWzEuVvNmPyiaBNEgKgUqcuwWnVISHa7d1HpyrQtoWIH9tY6kBC3TLSfxow44ItaYSkxdp5WWFlsfk0LEG18WrRlGk8V4F07r3kf98ahbUx4mPiUWmyAzYJSLkSseFhKvH/bfrl+qIaJQSRiFBrWM4sR985WZHQthT/Gw2JGj1xai2qnuLBmu0tsXpbamLUQJkMjmlwB9DJc+dSCzvhJkojpcr+DSGZZNbmsr62orWyELuUpt2WVdAfGW8NwSTS9MxTN7AVjYsnlI4KDakuq7WwV2qInY+bc56QSfY214UBniCPnx1su4Pa4dCzhDcPTSMEFHJMER8Ddv0U7XSVnnOh30YCaq6LK2Hl6CV65eES0wsUuNK9djTNdS9FvcFfMCAh7G74WVa/cuNrrAkh+rG8f8qXWCBjH3BEtgggMP9w9njJYDprLgfNRGNFpZy5fiLEfQZ1ddvmmj3sMaD7ijifxmNOUJGYpOd29JahglpL2CcCS8gVDFIaLqkRclGdu+tGxHm1dtCt6JVF61TeffsKYDthah4kWQQSGHyKlQAqaj0XrF+HYgnAEx5odzEVbxly96zjczQpy4KbTsmJWVXdLSov0oSV1+Bxz+xJgcsWY8hA/IwGdVXsld7Cz6iI6DWaYZsmjPEZlmmxA+zFFYL1hGGwj72CCaHrnHl/4xPWrQ0WbIAJDtUjxLQhOV2+mtKoXvtTBxy8egDV1MZ6wuQPmEvZNONyixxNzhLuXdgNf9AtLqi/ZitrCPfh68nIRUF8O04097k2ePKb1kQXDXQF3OcjusUIoguLP9LbFwJfgOkGogHacE+p4sQU1i4DyHrYY8I2ez7RmYupmsqSI4BCYu0cMPn47DuVfNiN3i3KVQobvOM+NTMY2EigiiJBIEap5fU0mjkeex26PvVB25E7RoZweiSGCDLl7BEFoGrKkCILQNP3Skvr2UI/dPqpYtmSRqKlnx87dokYQRKgYlCL10X/9l2j5zkv/+I8kUgQRBsjdIwhC05BIEQShafq/SD29DU+9sUuU3+ORZNHvM/dQ+quT2L1UNCXs2P3br/CWaBEEET56FCme1I3nSVruJRGSc0wur/Z9rqQeWYWUefHoOLAYf32Tlx/gK48MdA/mrSILpnc8jkWfiA4JA8otDuT+qg35oocgiPDgRaRSkPfzLchDHZpEjwezX0W+uR37RB6lfU2JWPDzpVBtwASD5FgMxxW0+ZthZelXyE2IR3mhl1S47z2K8o5LWPka5UUiiHDSTaSS85Yi4ihP4nZN9ChhApaVCLtlr+tUlEOVFtiNKXjSp6RuQeaRSIwQVU+YhfXGNkQk/zvSna7gz/69y1zm5mVdwaWKR3pMc/v6ngmA2UpuH0GEkW4iVV/2Jop7PJcpERFGG+otziyU87G8wMycIyMi4kRXCBjxvd/LwsNcPSCeCZIQopdXyRMkWP+ySDRLbuBf0KHPQJwy8WbWLUwyxqPKw83rwtGROGe7gske8SqCIEKJn4Fz2SUsenshUMFdPiDCt/y4QeH2H38gx6AOXGGtK6iThIiVD9+XJ0g40LxjJTqk+vtoawaGj/m+1JIYfwdGmw+pcNkNYmLI5SOIcOGHSBmRUbBCcgl5TKr4UApiRgMd1zV3tlOv5McoT5PomUttETBGUSpcgggXKkXqMjpskI5ocruEsgvYwSyV/kTpdb2o9c6EqA7Y2igVLkGEC5UixQ/DtMFgXgrnCU7JeTNh0uQhmQ/gy2GwGX1IhRsBXL9O+ZEIIlx0Fyl+uKW0/2khTKxpypH3Qzn3S/HAeqkFzOWT+70ekNkfEEHxZ3rbYuBLcJ0giD5lcD9gvPQr1OQA5S9634bwVtFJPNNmxtT3htIDxgQRJvxc3RsgfPIIyhuvILfISyrc1y4iN2ICtjGBIggifAxukWK8XmjG8Yi/dXt2L9esR/mrUZQKlyDCzKAXKb4XKv/Vqd2e3VvUgwtIEERoocycKqCYFEGEHjqIgSAITUPuHkEQmoZEiiAITUMiRRCEpiGRIghC05BIEQShaUikCILQNCRSBEFoGhIpgiA0DPD/AReUvFiE/UopAAAAAElFTkSuQmCC;" vertex="1" parent="1">
                    <mxGeometry x="200" y="280" width="171" height="114" as="geometry"/>
                </mxCell>
                <mxCell id="27" value="&lt;h1&gt;执行过程&lt;/h1&gt;&lt;p&gt;1.编译阶段生成 GO 对象, foo: undefined&lt;/p&gt;&lt;p&gt;2.执行到第9行,执行代码 var fn = foo(), 调用栈中生成&amp;nbsp; 函数执行上下文, 执行上下文时, 会先创建AO对象(foo), 对象在parse时,&lt;/p&gt;&lt;p&gt;会在堆内存中创建 bar对象&lt;/p&gt;&lt;p&gt;3.当第9行执行完后,foo函数的执行上下文就会从栈中弹出.当前阶段GO对象中 fn 就会指向 0xb00&lt;/p&gt;&lt;p&gt;4.接着执行 fn() 代码,会创建 bar 函数执行上下文, 会先创建AO对象(bar). 执行上下文AO里代码时 console.log(&quot;bar&quot;, name),&lt;/p&gt;&lt;p&gt;name 变量查找顺序: scope chain&amp;nbsp; [当前AO对象 + parentScope ]来查找. parentScope在定义时已经确定. 它的父级作用域就是&lt;/p&gt;&lt;p&gt;foo 的 AO.&lt;/p&gt;&lt;p&gt;&lt;br&gt;&lt;/p&gt;&lt;p&gt;&lt;br&gt;&lt;/p&gt;" style="text;html=1;strokeColor=none;fillColor=none;spacing=5;spacingTop=-20;whiteSpace=wrap;overflow=hidden;rounded=0;" vertex="1" parent="1">
                    <mxGeometry x="130" y="440" width="670" height="320" as="geometry"/>
                </mxCell>
            </root>
        </mxGraphModel>
    </diagram>
</mxfile>